<?xml version="1.0" encoding="UTF-8" standalone="no" ?>
<!DOCTYPE svg PUBLIC "-//W3C//DTD SVG 1.1//EN" "http://www.w3.org/Graphics/SVG/1.1/DTD/svg11.dtd">
<svg xmlns="http://www.w3.org/2000/svg" xmlns:xlink="http://www.w3.org/1999/xlink" version="1.1" width="300" height="300" viewBox="0 0 300 300" xml:space="preserve">
<desc>Created with Fabric.js 6.7.0</desc>
<defs>
</defs>
<rect x="0" y="0" width="100%" height="100%" fill="white"></rect>
<g transform="matrix(1 0 0 1 165.875 142.291)"  >
<path style="stroke: rgb(255,0,0); stroke-width: 5; stroke-dasharray: none; stroke-linecap: round; stroke-dashoffset: 0; stroke-linejoin: round; stroke-miterlimit: 10; fill: none; fill-rule: nonzero; opacity: 1;"  transform=" translate(-165.875, -142.291)" d="M 69.495 68.005 Q 69.5 68 80 55.5 Q 90.5 43 98.5 38 Q 106.5 33 114 29.5 Q 121.5 26 129.5 23.5 Q 137.5 21 141 19.5 Q 144.5 18 141.5 22 Q 138.5 26 130.5 34.5 Q 122.5 43 116 53 Q 109.5 63 103.5 74 Q 97.5 85 91 95 Q 84.5 105 79.5 118.5 Q 74.5 132 74 142 Q 73.5 152 74 159.5 Q 74.5 167 78.5 175 Q 82.5 183 88 187 Q 93.5 191 100.5 192.5 Q 107.5 194 118 193.5 Q 128.5 193 142.5 184 Q 156.5 175 168 163 Q 179.5 151 192.5 135 Q 205.5 119 216 104 Q 226.5 89 234.5 77 Q 242.5 65 248.5 56 Q 254.5 47 257 44.5 Q 259.5 42 260 42.5 Q 260.5 43 260.5 48 Q 260.5 53 256 65 Q 251.5 77 244.5 88 Q 237.5 99 230 112 Q 222.5 125 213.5 138 Q 204.5 151 196 161 Q 187.5 171 181.5 178 Q 175.5 185 169.5 189 Q 163.5 193 155.5 194 Q 147.5 195 136.5 193.5 Q 125.5 192 117 185.5 Q 108.5 179 103 171 Q 97.5 163 93 155.5 Q 88.5 148 87 141.5 Q 85.5 135 85.5 131 Q 85.5 127 88.5 123 Q 91.5 119 99.5 116 Q 107.5 113 117.5 110 Q 127.5 107 140.5 105.5 Q 153.5 104 166 104 Q 178.5 104 193.5 104.5 Q 208.5 105 222.5 109.5 Q 236.5 114 247 119 Q 257.5 124 263.5 128.5 Q 269.5 133 270.5 134 Q 271.5 135 270.5 135.5 Q 269.5 136 262.5 136.5 Q 255.5 137 244 134 Q 232.5 131 220 123.5 Q 207.5 116 194.5 110.5 Q 181.5 105 169 103 Q 156.5 101 142.5 103 Q 128.5 105 117 114.5 Q 105.5 124 95.5 134 Q 85.5 144 77.5 152.5 Q 69.5 161 65 169.5 Q 60.5 178 60.5 186 Q 60.5 194 65 200.5 Q 69.5 207 79.5 210 Q 89.5 213 101.5 214 Q 113.5 215 129.5 215 Q 145.5 215 159 213.5 Q 172.5 212 180 209 Q 187.5 206 189 203.5 Q 190.5 201 191 199.5 Q 191.5 198 191.5 197.5 Q 191.5 197 189 197 Q 186.5 197 181 199.5 Q 175.5 202 171.5 208.5 Q 167.5 215 166.5 222 Q 165.5 229 165.5 235.5 Q 165.5 242 171.5 247 Q 177.5 252 188 256 Q 198.5 260 218 263 L 237.505 266.005" stroke-linecap="round" />
</g>
</svg>