<?xml version="1.0" encoding="UTF-8" standalone="no" ?>
<!DOCTYPE svg PUBLIC "-//W3C//DTD SVG 1.1//EN" "http://www.w3.org/Graphics/SVG/1.1/DTD/svg11.dtd">
<svg xmlns="http://www.w3.org/2000/svg" xmlns:xlink="http://www.w3.org/1999/xlink" version="1.1" width="300" height="300" viewBox="0 0 300 300" xml:space="preserve">
<desc>Created with Fabric.js 6.7.0</desc>
<defs>
</defs>
<rect x="0" y="0" width="100%" height="100%" fill="white"></rect>
<g transform="matrix(1 0 0 1 225.5 47.5)"  >
<rect style="stroke: rgb(0,0,0); stroke-width: 5; stroke-dasharray: none; stroke-linecap: butt; stroke-dashoffset: 0; stroke-linejoin: miter; stroke-miterlimit: 4; fill: rgb(255,255,255); fill-rule: nonzero; opacity: 1;"  x="-25" y="-25" rx="0" ry="0" width="50" height="50" />
</g>
<g transform="matrix(1 0 0 1 59.5 142.5)"  >
<circle style="stroke: rgb(0,0,0); stroke-width: 5; stroke-dasharray: none; stroke-linecap: butt; stroke-dashoffset: 0; stroke-linejoin: miter; stroke-miterlimit: 4; fill: rgb(255,255,255); fill-rule: nonzero; opacity: 1;"  cx="0" cy="0" r="25" />
</g>
<g transform="matrix(1 0 0 1 136.6005 152.042)"  >
<path style="stroke: rgb(255,0,0); stroke-width: 5; stroke-dasharray: none; stroke-linecap: round; stroke-dashoffset: 0; stroke-linejoin: round; stroke-miterlimit: 10; fill: none; fill-rule: nonzero; opacity: 1;"  transform=" translate(-136.6005, -152.042)" d="M 131.505 103.005 Q 131.5 103 126 99 Q 120.5 95 113.5 92 Q 106.5 89 99.5 89 Q 92.5 89 83 90.5 Q 73.5 92 64.5 95.5 Q 55.5 99 49 103 Q 42.5 107 41 112 Q 39.5 117 40 122.5 Q 40.5 128 51.5 138 Q 62.5 148 71.5 152.5 Q 80.5 157 92 159.5 Q 103.5 162 114 162.5 Q 124.5 163 134 157.5 Q 143.5 152 152 143 Q 160.5 134 169 125 Q 177.5 116 187 105.5 Q 196.5 95 206 85 Q 215.5 75 221.5 67 Q 227.5 59 229.5 54.5 Q 231.5 50 232.5 48.5 Q 233.5 47 233.5 50 Q 233.5 53 232.5 60.5 Q 231.5 68 228.5 79 Q 225.5 90 224 104 Q 222.5 118 221 133 Q 219.5 148 218 163 Q 216.5 178 214 191.5 Q 211.5 205 206.5 214 Q 201.5 223 195 230 Q 188.5 237 180.5 242.5 Q 172.5 248 162.5 251 Q 152.5 254 140.5 255.5 Q 128.5 257 117 255 Q 105.5 253 97 246 Q 88.5 239 83 230.5 Q 77.5 222 75 213 Q 72.5 204 72.5 195 Q 72.5 186 74 177.5 Q 75.5 169 79.5 163 Q 83.5 157 90.5 153 Q 97.5 149 107.5 145.5 Q 117.5 142 128 141 Q 138.5 140 150 139.5 Q 161.5 139 173 141 Q 184.5 143 195.5 145.5 Q 206.5 148 214 149.5 Q 221.5 151 225 150 Q 228.5 149 230 144 Q 231.5 139 231 133 Q 230.5 127 225.5 120.5 Q 220.5 114 214.5 108.5 Q 208.5 103 199.5 99 Q 190.5 95 181 93 Q 171.5 91 161.5 90.5 Q 151.5 90 142 91 Q 132.5 92 125 95.5 Q 117.5 99 112 103 Q 106.5 107 104.5 113 Q 102.5 119 103 124.5 Q 103.5 130 108.5 136 Q 113.5 142 120 148.5 Q 126.5 155 135 160.5 Q 143.5 166 153 171.5 Q 162.5 177 171.5 182 Q 180.5 187 185.5 189.5 Q 190.5 192 193 192.5 Q 195.5 193 197 192 Q 198.5 191 199 187 Q 199.5 183 197 177.5 Q 194.5 172 188.5 167.5 Q 182.5 163 173.5 161 Q 164.5 159 155.5 158.5 Q 146.5 158 138.5 159 Q 130.5 160 123.5 170.5 L 116.495 181.005" stroke-linecap="round" />
</g>
</svg>