<?xml version="1.0" encoding="UTF-8" standalone="no" ?>
<!DOCTYPE svg PUBLIC "-//W3C//DTD SVG 1.1//EN" "http://www.w3.org/Graphics/SVG/1.1/DTD/svg11.dtd">
<svg xmlns="http://www.w3.org/2000/svg" xmlns:xlink="http://www.w3.org/1999/xlink" version="1.1" width="300" height="300" viewBox="0 0 300 300" xml:space="preserve">
<desc>Created with Fabric.js 6.7.0</desc>
<defs>
</defs>
<rect x="0" y="0" width="100%" height="100%" fill="white"></rect>
<g transform="matrix(1 0 0 1 152.5 152.5)"  >
<rect style="stroke: rgb(0,0,0); stroke-width: 5; stroke-dasharray: none; stroke-linecap: butt; stroke-dashoffset: 0; stroke-linejoin: miter; stroke-miterlimit: 4; fill: rgb(255,255,255); fill-rule: nonzero; opacity: 1;"  x="-25" y="-25" rx="0" ry="0" width="50" height="50" />
</g>
<g transform="matrix(1 0 0 1 141.0309 150.0025)"  >
<path style="stroke: rgb(255,0,0); stroke-width: 5; stroke-dasharray: none; stroke-linecap: round; stroke-dashoffset: 0; stroke-linejoin: round; stroke-miterlimit: 10; fill: none; fill-rule: nonzero; opacity: 1;"  transform=" translate(-141.0309, -150.0025)" d="M 177.505 57.995 Q 177.5 58 169 57 Q 160.5 56 148.5 56.5 Q 136.5 57 123 62 Q 109.5 67 95 75 Q 80.5 83 67 93.5 Q 53.5 104 44.5 114.5 Q 35.5 125 31.5 136 Q 27.5 147 27.5 156.5 Q 27.5 166 32 174.5 Q 36.5 183 44.5 186.5 Q 52.5 190 63.5 189 Q 74.5 188 87 182 Q 99.5 176 111 167 Q 122.5 158 132.5 146.5 Q 142.5 135 152 122 Q 161.5 109 168.5 96.5 Q 175.5 84 180.5 74.5 Q 185.5 65 186 59 Q 186.5 53 184.5 51 Q 182.5 49 172 52.5 Q 161.5 56 148 66.5 Q 134.5 77 122 90.5 Q 109.5 104 101 118 Q 92.5 132 87.5 145.5 Q 82.5 159 81.5 170 Q 80.5 181 81.5 190 Q 82.5 199 87 206 Q 91.5 213 97 218.5 Q 102.5 224 112 226.5 Q 121.5 229 133.5 229 Q 145.5 229 158.5 226.5 Q 171.5 224 183.5 220.5 Q 195.5 217 206 214 Q 216.5 211 224 209 Q 231.5 207 237 206.5 Q 242.5 206 244.5 206 Q 246.5 206 246.5 207 Q 246.5 208 242 213 Q 237.5 218 228.5 224 Q 219.5 230 210 235.5 Q 200.5 241 190 244.5 Q 179.5 248 169.5 249 Q 159.5 250 151 249.5 Q 142.5 249 136.5 245 Q 130.5 241 126.5 235 Q 122.5 229 120 220.5 Q 117.5 212 118.5 198.5 Q 119.5 185 125 169 Q 130.5 153 140 138.5 Q 149.5 124 159.5 112 Q 169.5 100 181 91.5 Q 192.5 83 202.5 78 Q 212.5 73 220.5 72 Q 228.5 71 236 71 Q 243.5 71 250.5 73.5 Q 257.5 76 264 80.5 Q 270.5 85 274.5 88.5 Q 278.5 92 279 93 Q 279.5 94 275 91 Q 270.5 88 263 82.5 Q 255.5 77 246 73 Q 236.5 69 223.5 67.5 Q 210.5 66 197.5 66 Q 184.5 66 172 66 Q 159.5 66 148.5 69.5 Q 137.5 73 129 79 Q 120.5 85 116 91.5 Q 111.5 98 110 105.5 Q 108.5 113 109.5 120.5 Q 110.5 128 117 134.5 Q 123.5 141 133 146.5 Q 142.5 152 155 155.5 Q 167.5 159 181.5 160.5 Q 195.5 162 208 162.5 Q 220.5 163 231.5 163.5 Q 242.5 164 250 163 Q 257.5 162 262 157.5 Q 266.5 153 268.5 146 Q 270.5 139 270.5 131.5 Q 270.5 124 267.5 114.5 Q 264.5 105 258 97 Q 251.5 89 243 83 Q 234.5 77 225 72 Q 215.5 67 205.5 62.5 Q 195.5 58 185.5 53.5 Q 175.5 49 164 45.5 Q 152.5 42 139.5 41.5 Q 126.5 41 113.5 41 Q 100.5 41 89.5 40.5 Q 78.5 40 68 39.5 Q 57.5 39 48 39 Q 38.5 39 31.5 39.5 Q 24.5 40 18.5 43.5 Q 12.5 47 8.5 54.5 Q 4.5 62 3.5 68 Q 2.5 74 4.5 81.5 Q 6.5 89 10.5 96 Q 14.5 103 21 111 Q 27.5 119 34.5 126.5 Q 41.5 134 49.5 141.5 Q 57.5 149 65.5 156 Q 73.5 163 81 168.5 Q 88.5 174 92.5 180 Q 96.5 186 98 190.5 Q 99.5 195 99.5 200.5 Q 99.5 206 97.5 211.5 Q 95.5 217 91 222 Q 86.5 227 79.5 233 Q 72.5 239 66.5 243.5 Q 60.5 248 55 250 Q 49.5 252 48 253 Q 46.5 254 48 254.5 Q 49.5 255 55.5 255 Q 61.5 255 68 255 Q 74.5 255 82.5 255.5 Q 90.5 256 99.5 256.5 Q 108.5 257 120 259 L 131.505 261.005" stroke-linecap="round" />
</g>
</svg>