<?xml version="1.0" encoding="UTF-8" standalone="no" ?>
<!DOCTYPE svg PUBLIC "-//W3C//DTD SVG 1.1//EN" "http://www.w3.org/Graphics/SVG/1.1/DTD/svg11.dtd">
<svg xmlns="http://www.w3.org/2000/svg" xmlns:xlink="http://www.w3.org/1999/xlink" version="1.1" width="300" height="300" viewBox="0 0 300 300" xml:space="preserve">
<desc>Created with Fabric.js 6.7.0</desc>
<defs>
</defs>
<rect x="0" y="0" width="100%" height="100%" fill="white"></rect>
<g transform="matrix(1 0 0 1 160.912 159.2928)"  >
<path style="stroke: rgb(255,0,0); stroke-width: 5; stroke-dasharray: none; stroke-linecap: round; stroke-dashoffset: 0; stroke-linejoin: round; stroke-miterlimit: 10; fill: none; fill-rule: nonzero; opacity: 1;"  transform=" translate(-160.912, -159.2928)" d="M 77.495 111.005 Q 77.5 111 87.5 104.5 Q 97.5 98 117.5 86.5 Q 137.5 75 153.5 67.5 Q 169.5 60 187 55.5 Q 204.5 51 219 50.5 Q 233.5 50 243.5 58 Q 253.5 66 258 76 Q 262.5 86 263 97 Q 263.5 108 257.5 121 Q 251.5 134 242.5 144 Q 233.5 154 222 161 Q 210.5 168 197 172.5 Q 183.5 177 170 178 Q 156.5 179 142 177 Q 127.5 175 116 173 Q 104.5 171 94.5 171 Q 84.5 171 75.5 174 Q 66.5 177 63 185 Q 59.5 193 59 201.5 Q 58.5 210 59 218 Q 59.5 226 65.5 233.5 Q 71.5 241 82.5 247.5 Q 93.5 254 105.5 259 Q 117.5 264 128 266.5 Q 138.5 269 147.5 265.5 Q 156.5 262 163.5 252 Q 170.5 242 179 229 Q 187.5 216 195 203.5 Q 202.5 191 204 177 Q 205.5 163 196.5 148.5 Q 187.5 134 177.5 121 Q 167.5 108 158.5 101 Q 149.5 94 141 90 Q 132.5 86 125 85.5 Q 117.5 85 110.5 84.5 Q 103.5 84 97 84 Q 90.5 84 86.5 85.5 Q 82.5 87 82 92 Q 81.5 97 83 103.5 Q 84.5 110 93 116.5 Q 101.5 123 114.5 129 Q 127.5 135 143.5 140.5 Q 159.5 146 174.5 150 Q 189.5 154 203 157.5 Q 216.5 161 231 167 L 245.505 173.005" stroke-linecap="round" />
</g>
</svg>