<?xml version="1.0" encoding="UTF-8" standalone="no" ?>
<!DOCTYPE svg PUBLIC "-//W3C//DTD SVG 1.1//EN" "http://www.w3.org/Graphics/SVG/1.1/DTD/svg11.dtd">
<svg xmlns="http://www.w3.org/2000/svg" xmlns:xlink="http://www.w3.org/1999/xlink" version="1.1" width="300" height="300" viewBox="0 0 300 300" xml:space="preserve">
<desc>Created with Fabric.js 6.7.0</desc>
<defs>
</defs>
<rect x="0" y="0" width="100%" height="100%" fill="white"></rect>
<g transform="matrix(1 0 0 1 156.8485 155.1317)"  >
<path style="stroke: rgb(255,0,0); stroke-width: 5; stroke-dasharray: none; stroke-linecap: round; stroke-dashoffset: 0; stroke-linejoin: round; stroke-miterlimit: 10; fill: none; fill-rule: nonzero; opacity: 1;"  transform=" translate(-156.8485, -155.1317)" d="M 118.505 135.005 Q 118.5 135 115.5 124.5 Q 112.5 114 112 103 Q 111.5 92 121.5 81.5 Q 131.5 71 141.5 63 Q 151.5 55 159 49.5 Q 166.5 44 171.5 40 Q 176.5 36 179.5 32.5 Q 182.5 29 183 29.5 Q 183.5 30 181 32 Q 178.5 34 172 42.5 Q 165.5 51 157.5 60.5 Q 149.5 70 140 78.5 Q 130.5 87 121.5 95 Q 112.5 103 105.5 110 Q 98.5 117 93 123 Q 87.5 129 83.5 136 Q 79.5 143 76.5 149.5 Q 73.5 156 73.5 162.5 Q 73.5 169 76.5 175.5 Q 79.5 182 86 186.5 Q 92.5 191 100.5 195 Q 108.5 199 119.5 202.5 Q 130.5 206 144.5 209 Q 158.5 212 171.5 212.5 Q 184.5 213 197 213 Q 209.5 213 221 211.5 Q 232.5 210 241.5 204 Q 250.5 198 257.5 193.5 Q 264.5 189 268.5 185 Q 272.5 181 274 177 Q 275.5 173 274.5 167.5 Q 273.5 162 265.5 156 Q 257.5 150 248.5 144.5 Q 239.5 139 231.5 132.5 Q 223.5 126 215 119.5 Q 206.5 113 195.5 108 Q 184.5 103 173 101 Q 161.5 99 151 99 Q 140.5 99 129.5 100 Q 118.5 101 109.5 109 Q 100.5 117 91.5 129.5 Q 82.5 142 76 154 Q 69.5 166 66.5 178 Q 63.5 190 64 198.5 Q 64.5 207 71 214.5 Q 77.5 222 85.5 229 Q 93.5 236 102.5 242.5 Q 111.5 249 122 255 Q 132.5 261 144 266 Q 155.5 271 163.5 275.5 Q 171.5 280 172 280.5 Q 172.5 281 171 281 Q 169.5 281 160 278.5 Q 150.5 276 139.5 270 Q 128.5 264 118.5 255 Q 108.5 246 97.5 235 Q 86.5 224 75 213.5 Q 63.5 203 55 193.5 Q 46.5 184 44 174 Q 41.5 164 40.5 157 Q 39.5 150 39 143 Q 38.5 136 38.5 129.5 Q 38.5 123 42.5 115 Q 46.5 107 53 101 Q 59.5 95 69.5 92.5 Q 79.5 90 90.5 89 Q 101.5 88 112 88 Q 122.5 88 137 91 Q 151.5 94 164.5 99 Q 177.5 104 190.5 109.5 Q 203.5 115 212 118.5 Q 220.5 122 221 123 Q 221.5 124 222 124 Q 222.5 124 219.5 124.5 Q 216.5 125 206.5 125.5 Q 196.5 126 185 124 Q 173.5 122 161 118 Q 148.5 114 136 112 Q 123.5 110 114.5 109.5 Q 105.5 109 103.5 109 Q 101.5 109 101.5 110.5 Q 101.5 112 103 118 Q 104.5 124 112 130 Q 119.5 136 131 141 Q 142.5 146 155.5 152.5 Q 168.5 159 190 171 L 211.505 183.005" stroke-linecap="round" />
</g>
</svg>