<?xml version="1.0" encoding="UTF-8" standalone="no" ?>
<!DOCTYPE svg PUBLIC "-//W3C//DTD SVG 1.1//EN" "http://www.w3.org/Graphics/SVG/1.1/DTD/svg11.dtd">
<svg xmlns="http://www.w3.org/2000/svg" xmlns:xlink="http://www.w3.org/1999/xlink" version="1.1" width="400" height="300" viewBox="0 0 400 300" xml:space="preserve">
<desc>Created with Fabric.js 6.7.0</desc>
<defs>
</defs>
<rect x="0" y="0" width="100%" height="100%" fill="white"></rect>
<g transform="matrix(1 0 0 1 214.7877 138.5)"  >
<path style="stroke: rgb(95,173,71); stroke-width: 5; stroke-dasharray: none; stroke-linecap: round; stroke-dashoffset: 0; stroke-linejoin: round; stroke-miterlimit: 10; fill: none; fill-rule: nonzero; opacity: 1;"  transform=" translate(-214.7877, -138.5)" d="M 64.495 152.005 Q 64.5 152 64.5 148 Q 64.5 144 77 124.5 Q 89.5 105 100 94 Q 110.5 83 122 73 Q 133.5 63 146.5 54 Q 159.5 45 170 39.5 Q 180.5 34 188 31.5 Q 195.5 29 198.5 29 Q 201.5 29 197 40.5 Q 192.5 52 185 62 Q 177.5 72 168 83.5 Q 158.5 95 140.5 118.5 Q 122.5 142 116 151.5 Q 109.5 161 106 167 Q 102.5 173 101.5 176.5 Q 100.5 180 100.5 181.5 Q 100.5 183 105.5 183 Q 110.5 183 118 178.5 Q 125.5 174 137 165.5 Q 148.5 157 162.5 146.5 Q 176.5 136 189 126 Q 201.5 116 213 107 Q 224.5 98 233 91.5 Q 241.5 85 247.5 80.5 Q 253.5 76 257.5 75.5 Q 261.5 75 264 76 Q 266.5 77 267 86 Q 267.5 95 267.5 106 Q 267.5 117 267.5 127 Q 267.5 137 268.5 147 Q 269.5 157 272 164.5 Q 274.5 172 279 176 Q 283.5 180 288 181.5 Q 292.5 183 298.5 183.5 Q 304.5 184 313.5 181 Q 322.5 178 331.5 172 Q 340.5 166 348 161 Q 355.5 156 361 150.5 Q 366.5 145 370 139.5 Q 373.5 134 374.5 132.5 Q 375.5 131 372 137 Q 368.5 143 362 152.5 Q 355.5 162 344.5 172.5 Q 333.5 183 320.5 193.5 Q 307.5 204 293 213 Q 278.5 222 264 226.5 Q 249.5 231 235.5 233 Q 221.5 235 207 235 Q 192.5 235 178.5 233 Q 164.5 231 152 229 Q 139.5 227 129 224 Q 118.5 221 111 217 Q 103.5 213 97.5 207 Q 91.5 201 88.5 195.5 Q 85.5 190 84 185 Q 82.5 180 82.5 175 Q 82.5 170 87 164.5 Q 91.5 159 99.5 153 Q 107.5 147 117.5 140 Q 127.5 133 141.5 126 Q 155.5 119 170 112.5 Q 184.5 106 199.5 102 Q 214.5 98 230.5 94.5 Q 246.5 91 260 89 Q 273.5 87 284 86.5 Q 294.5 86 303 86 Q 311.5 86 316.5 86 Q 321.5 86 324 86 Q 326.5 86 327 86 Q 327.5 86 326.5 86 Q 325.5 86 317 88.5 Q 308.5 91 298.5 94 Q 288.5 97 273 101 Q 257.5 105 240.5 111 Q 223.5 117 205 123 Q 186.5 129 168 136 Q 149.5 143 133.5 152 Q 117.5 161 104.5 171.5 Q 91.5 182 81.5 192 Q 71.5 202 65.5 210.5 Q 59.5 219 57 225.5 Q 54.5 232 54.5 237 Q 54.5 242 58 245 Q 61.5 248 71 248 Q 80.5 248 93 243 Q 105.5 238 121 229.5 Q 136.5 221 154.5 213.5 Q 172.5 206 190 199 Q 207.5 192 226 186 Q 244.5 180 261 175 Q 277.5 170 288.5 167.5 Q 299.5 165 310 163.5 Q 320.5 162 327 161 Q 333.5 160 339 159.5 Q 344.5 159 347 159 Q 349.5 159 350 158.5 Q 350.5 158 351 158.5 Q 351.5 159 350.5 159 Q 349.5 159 342.5 163 Q 335.5 167 328.5 171.5 Q 321.5 176 310.5 179 Q 299.5 182 284.5 185.5 Q 269.5 189 253 192.5 Q 236.5 196 221 200 Q 205.5 204 191 209 Q 176.5 214 169 218 Q 161.5 222 160 225 Q 158.5 228 160 232 Q 161.5 236 171 237.5 L 180.505 239.005" stroke-linecap="round" />
</g>
</svg>