<?xml version="1.0" encoding="UTF-8" standalone="no" ?>
<!DOCTYPE svg PUBLIC "-//W3C//DTD SVG 1.1//EN" "http://www.w3.org/Graphics/SVG/1.1/DTD/svg11.dtd">
<svg xmlns="http://www.w3.org/2000/svg" xmlns:xlink="http://www.w3.org/1999/xlink" version="1.1" width="300" height="300" viewBox="0 0 300 300" xml:space="preserve">
<desc>Created with Fabric.js 6.7.0</desc>
<defs>
</defs>
<rect x="0" y="0" width="100%" height="100%" fill="white"></rect>
<g transform="matrix(1 0 0 1 161.7203 148.3909)"  >
<path style="stroke: rgb(255,0,0); stroke-width: 5; stroke-dasharray: none; stroke-linecap: round; stroke-dashoffset: 0; stroke-linejoin: round; stroke-miterlimit: 10; fill: none; fill-rule: nonzero; opacity: 1;"  transform=" translate(-161.7203, -148.3909)" d="M 119.495 142.005 Q 119.5 142 126 124.5 Q 132.5 107 149.5 96 Q 166.5 85 182 74 Q 197.5 63 211 55.5 Q 224.5 48 235.5 43.5 Q 246.5 39 254.5 37 Q 262.5 35 264 34.5 Q 265.5 34 259 34.5 Q 252.5 35 237.5 35.5 Q 222.5 36 203.5 41 Q 184.5 46 167 51 Q 149.5 56 133.5 62 Q 117.5 68 106 74.5 Q 94.5 81 90 88 Q 85.5 95 84 106.5 Q 82.5 118 83 129.5 Q 83.5 141 90 151 Q 96.5 161 104 172 Q 111.5 183 124.5 194.5 Q 137.5 206 150 215.5 Q 162.5 225 171 231.5 Q 179.5 238 184 240 Q 188.5 242 191 242 Q 193.5 242 194.5 241 Q 195.5 240 195 236 Q 194.5 232 186 227 Q 177.5 222 165 216 Q 152.5 210 138.5 203 Q 124.5 196 113.5 188.5 Q 102.5 181 94 173 Q 85.5 165 77.5 158.5 Q 69.5 152 64.5 145.5 Q 59.5 139 59 132 Q 58.5 125 59 118 Q 59.5 111 65.5 104.5 Q 71.5 98 80.5 95 Q 89.5 92 98.5 90.5 Q 107.5 89 117.5 89 Q 127.5 89 141 92 Q 154.5 95 167 103.5 Q 179.5 112 193.5 123 Q 207.5 134 218 144 Q 228.5 154 232.5 163 Q 236.5 172 236.5 177 Q 236.5 182 236 186.5 Q 235.5 191 229 194.5 Q 222.5 198 212 200.5 Q 201.5 203 186 204 Q 170.5 205 154.5 205 Q 138.5 205 124 204.5 Q 109.5 204 99.5 203.5 Q 89.5 203 82.5 203 Q 75.5 203 73 203 Q 70.5 203 78 212 Q 85.5 221 92.5 226 Q 99.5 231 108 236.5 Q 116.5 242 128 247 Q 139.5 252 150.5 256.5 Q 161.5 261 169.5 262 Q 177.5 263 185.5 261 Q 193.5 259 199 246.5 Q 204.5 234 207 222.5 Q 209.5 211 210 199.5 Q 210.5 188 210.5 178.5 Q 210.5 169 208.5 167 L 206.495 164.995" stroke-linecap="round" />
</g>
</svg>