<?xml version="1.0" encoding="UTF-8" standalone="no" ?>
<!DOCTYPE svg PUBLIC "-//W3C//DTD SVG 1.1//EN" "http://www.w3.org/Graphics/SVG/1.1/DTD/svg11.dtd">
<svg xmlns="http://www.w3.org/2000/svg" xmlns:xlink="http://www.w3.org/1999/xlink" version="1.1" width="300" height="300" viewBox="0 0 300 300" xml:space="preserve">
<desc>Created with Fabric.js 6.7.0</desc>
<defs>
</defs>
<rect x="0" y="0" width="100%" height="100%" fill="white"></rect>
<g transform="matrix(1 0 0 1 148.5 136.9597)"  >
<path style="stroke: rgb(255,0,0); stroke-width: 5; stroke-dasharray: none; stroke-linecap: round; stroke-dashoffset: 0; stroke-linejoin: round; stroke-miterlimit: 10; fill: none; fill-rule: nonzero; opacity: 1;"  transform=" translate(-148.5, -136.9597)" d="M 47.495 64.005 Q 47.5 64 51 56 Q 54.5 48 62 42.5 Q 69.5 37 78 31.5 Q 86.5 26 94 21.5 Q 101.5 17 107.5 13.5 Q 113.5 10 117 9 Q 120.5 8 121.5 8.5 Q 122.5 9 120.5 15 Q 118.5 21 111.5 32 Q 104.5 43 99 54 Q 93.5 65 87.5 75.5 Q 81.5 86 76.5 96.5 Q 71.5 107 68.5 116 Q 65.5 125 64 131 Q 62.5 137 62.5 142.5 Q 62.5 148 63 152 Q 63.5 156 66.5 157.5 Q 69.5 159 80.5 156 Q 91.5 153 98 148 Q 104.5 143 112 136.5 Q 119.5 130 127 122 Q 134.5 114 142.5 106 Q 150.5 98 157 90.5 Q 163.5 83 167.5 76.5 Q 171.5 70 174.5 65 Q 177.5 60 178 56.5 Q 178.5 53 175 50.5 Q 171.5 48 164.5 48 Q 157.5 48 148.5 50 Q 139.5 52 129.5 56 Q 119.5 60 109.5 64 Q 99.5 68 89.5 72 Q 79.5 76 70 83 Q 60.5 90 53 99 Q 45.5 108 41 116 Q 36.5 124 35 129 Q 33.5 134 33.5 139 Q 33.5 144 35 148.5 Q 36.5 153 40 156.5 Q 43.5 160 50 163 Q 56.5 166 64 168.5 Q 71.5 171 81 172.5 Q 90.5 174 100 174.5 Q 109.5 175 118.5 174.5 Q 127.5 174 135 172.5 Q 142.5 171 149 168.5 Q 155.5 166 159.5 165 Q 163.5 164 166.5 164 Q 169.5 164 170.5 169 Q 171.5 174 169.5 184 Q 167.5 194 165 205 Q 162.5 216 161 225.5 Q 159.5 235 159.5 243 Q 159.5 251 160.5 255.5 Q 161.5 260 165.5 262.5 Q 169.5 265 174.5 265.5 Q 179.5 266 185.5 263 Q 191.5 260 199.5 253 Q 207.5 246 215 235.5 Q 222.5 225 229.5 212 Q 236.5 199 241 185 Q 245.5 171 248.5 157.5 Q 251.5 144 254 131.5 Q 256.5 119 258.5 108.5 Q 260.5 98 262 89.5 Q 263.5 81 263.5 75 Q 263.5 69 261.5 64 Q 259.5 59 255 56 Q 250.5 53 244.5 52.5 Q 238.5 52 230 55.5 Q 221.5 59 211.5 66 Q 201.5 73 191.5 82.5 Q 181.5 92 172.5 103 Q 163.5 114 157.5 126 Q 151.5 138 148 149 Q 144.5 160 144 168.5 Q 143.5 177 146 183.5 Q 148.5 190 154.5 193.5 Q 160.5 197 169.5 199.5 Q 178.5 202 188.5 203 Q 198.5 204 208 205 Q 217.5 206 225 206.5 Q 232.5 207 236.5 207 Q 240.5 207 242.5 208 Q 244.5 209 244.5 210 Q 244.5 211 242.5 215 Q 240.5 219 233.5 223.5 Q 226.5 228 218 233 Q 209.5 238 199 242.5 Q 188.5 247 177.5 249.5 Q 166.5 252 155 252.5 Q 143.5 253 133 251.5 Q 122.5 250 113.5 245.5 Q 104.5 241 97.5 237 Q 90.5 233 85.5 230 Q 80.5 227 77.5 224.5 Q 74.5 222 74 219 Q 73.5 216 74.5 210 Q 75.5 204 83 196 Q 90.5 188 101 178.5 Q 111.5 169 124.5 159.5 Q 137.5 150 161 135.5 L 184.505 120.995" stroke-linecap="round" />
</g>
</svg>